<?xml version="1.0" encoding="UTF-8" standalone="no"?>
<svg
   xmlns:dc="http://purl.org/dc/elements/1.1/"
   xmlns:cc="http://creativecommons.org/ns#"
   xmlns:rdf="http://www.w3.org/1999/02/22-rdf-syntax-ns#"
   xmlns:svg="http://www.w3.org/2000/svg"
   xmlns="http://www.w3.org/2000/svg"
   xmlns:sodipodi="http://sodipodi.sourceforge.net/DTD/sodipodi-0.dtd"
   xmlns:inkscape="http://www.inkscape.org/namespaces/inkscape"
   inkscape:version="1.0 (4035a4fb49, 2020-05-01)"
   sodipodi:docname="img_bg.svg"
   version="1.1"
   viewBox="0 0 987.9303 646.49701"
   height="646.49701"
   width="987.9303"
   data-name="Layer 1"
   id="b1679105-0122-4d59-939d-a96e32c04bd3">
  <metadata
     id="metadata65">
    <rdf:RDF>
      <cc:Work
         rdf:about="">
        <dc:format>image/svg+xml</dc:format>
        <dc:type
           rdf:resource="http://purl.org/dc/dcmitype/StillImage" />
        <dc:title></dc:title>
      </cc:Work>
    </rdf:RDF>
  </metadata>
  <defs
     id="defs63" />
  <sodipodi:namedview
     inkscape:current-layer="b1679105-0122-4d59-939d-a96e32c04bd3"
     inkscape:window-maximized="1"
     inkscape:window-y="-11"
     inkscape:window-x="-11"
     inkscape:cy="517.19761"
     inkscape:cx="493.96515"
     inkscape:zoom="1.2374381"
     showgrid="false"
     id="namedview61"
     inkscape:window-height="986"
     inkscape:window-width="1920"
     inkscape:pageshadow="2"
     inkscape:pageopacity="0"
     guidetolerance="10"
     gridtolerance="10"
     objecttolerance="10"
     borderopacity="1"
     bordercolor="#666666"
     pagecolor="#ffffff" />
  <ellipse
     id="ellipse2"
     fill="#e6e6e6"
     ry="9.69733"
     rx="190.05489"
     cy="636.79969"
     cx="190.05489" />
  <path
     id="path4"
     fill="#e6e6e6"
     transform="translate(-106.03485 -126.75149)"
     d="M848.11617,518.76958l-31.51263,4.086-1.60522.20738-41.94255,5.43772L581.60689,553.33134c-8.18729-5.66044-15.91375-11.48218-23.08723-17.44216l219.09057-12.94912,37.895-2.24265,1.58984-.09216Z" />
  <path
     id="path6"
     fill="#e6e6e6"
     transform="translate(-106.03485 -126.75149)"
     d="M709.10126,364.39394,542.64438,385.9835q7.24644-6.16352,15.13036-12.6419Z" />
  <path
     id="path8"
     fill="#e6e6e6"
     transform="translate(-106.03485 -126.75149)"
     d="M1093.96515,500.36737q-4.71187,7.77638-10.13806,15.22252L939.20547,496.83441,859.63674,486.512l78.27079,4.63129Z" />
  <path
     id="path10"
     fill="#f5df4d"
     transform="translate(-106.03485 -126.75149)"
     d="M1026.03222,572.18662C972.7995,610.312,901.67145,633.59128,823.53894,633.59128c-63.90846,0-137.3636-21.88909-197.86966-53.7089,4.78488-12.40384,11.45145-22.45743,20.72168-27.54953.2304-.13055.46849-.26115.7066-.37633a29.29632,29.29632,0,0,1,12.78017-3.23346c54.5307-1.53607,48.3864,59.907,116.74179-24.57722,42.51089-52.54149,90.66689-70.62111,123.585-64.77633.60674.10754,1.20583.22274,1.80487.34563,19.07809,3.96308,32.7261,16.1749,36.66614,34.47722,10.75253,49.92247-20.737,89.86046,36.86583,77.57185A119.139,119.139,0,0,1,1026.03222,572.18662Z" />
  <path
     id="path12"
     fill="#3f3d56"
     transform="translate(-106.03485 -126.75149)"
     d="M864.54465,631.55361c-26.78908-14.934-43.46616-35.323-49.56846-60.6-4.531-18.76743-3.22891-39.88623,3.86944-62.76986A168.114,168.114,0,0,1,842.224,460.96139c54.25277-76.79326,59.14939-126.832,53.70374-155.28693-5.97067-31.20005-25.36926-44.15769-25.56464-44.28482l.83741-1.28782c.20026.13013,20.11,13.38892,26.2243,45.222,3.5248,18.35191,1.86647,39.27795-4.92886,62.19648-8.45742,28.52317-24.94924,60.25949-49.01719,94.32769a166.59071,166.59071,0,0,0-23.166,46.79032c-11.64208,37.53186-13.28916,89.09017,44.97973,121.57428Z" />
  <path
     id="path14"
     fill="#3f3d56"
     transform="translate(-106.03485 -126.75149)"
     d="M817.15355,486.2857c-21.11955-11.77259-20.53152-30.43051-16.31931-44.00919a59.66642,59.66642,0,0,1,8.298-16.76258c19.00632-26.90308,20.7239-44.3797,18.81806-54.30344-2.07011-10.77616-8.71056-15.20026-8.77731-15.24376l.837-1.28782c.29514.19164,7.25661,4.82987,9.44859,16.24206,2.85427,14.86011-3.5623,33.52592-19.07157,55.47951a58.123,58.123,0,0,0-8.08578,16.33056c-4.04382,13.03639-4.61985,30.942,15.6,42.21359Z" />
  <path
     id="path16"
     fill="#3f3d56"
     transform="translate(-106.03485 -126.75149)"
     d="M912.17277,321.92627l-.74779-1.34182c20.21988-11.27194,19.64385-29.17757,15.6-42.21322a58.12548,58.12548,0,0,0-8.08577-16.33094c-15.50927-21.95321-21.92584-40.61939-19.07157-55.4795,2.192-11.41219,9.1535-16.05042,9.44859-16.24207l.83817,1.28708c-.06713.04425-6.74134,4.52647-8.79006,15.30526-1.88485,9.91811-.14851,27.37973,18.82968,54.24269a59.67383,59.67383,0,0,1,8.298,16.76221C932.70429,291.49463,933.29232,310.15256,912.17277,321.92627Z" />
  <path
     id="path18"
     fill="#f5df4d"
     transform="translate(-106.03485 -126.75149)"
     d="M957.26458,245.50422a23.04115,23.04115,0,0,1-38.60146-25.16955l.00656-.01c6.95313-10.65769,41.95905-22.14561,41.95905-22.14561S964.21776,234.84653,957.26458,245.50422Z" />
  <path
     id="path20"
     fill="#f5df4d"
     transform="translate(-106.03485 -126.75149)"
     d="M948.81616,174.07668a23.04115,23.04115,0,0,1-38.60146-25.16955l.00656-.01c6.95313-10.65769,41.95906-22.14562,41.95906-22.14562S955.76934,163.419,948.81616,174.07668Z" />
  <path
     id="path22"
     fill="#3f3d56"
     transform="translate(-106.03485 -126.75149)"
     d="M947.723,390.29216c-1.47462-.34563-36.2591-8.43307-47.85645-2.91087a23.8097,23.8097,0,0,0,10.27635,45.30656,23.42745,23.42745,0,0,0,5.14587-.56834,23.88265,23.88265,0,0,0,5.0537-1.74344c11.59736-5.52988,27.23465-37.63387,27.89515-39.001l.42241-.8602ZM919.682,428.98592a22.27169,22.27169,0,1,1-19.15487-40.21448c2.70351-1.2903,6.83556-1.77417,11.55128-1.77417,12.903,0,30.15318,3.64818,34.34669,4.5775-2.619,5.2534-16.65107,32.6032-26.7431,37.41113Z" />
  <path
     id="path24"
     fill="#3f3d56"
     transform="translate(-106.03485 -126.75149)"
     d="M843.04516,259.81159a23.71385,23.71385,0,0,1-16.03125-6.20468c-9.49322-8.65618-15.12825-43.92143-15.36376-45.41851l-.14851-.94654.9563.06075c1.51208.09638,37.1471,2.46125,46.64032,11.11743h0a23.79862,23.79862,0,0,1-16.053,41.39154Zm-29.71872-50.90615c.98255,5.78279,6.46382,36.03629,14.72248,43.56666a22.2733,22.2733,0,0,0,30.01424-32.91724h0C849.8045,212.02522,819.17523,209.35171,813.32644,208.90544Z" />
  <path
     id="path26"
     fill="#f5df4d"
     transform="translate(-106.03485 -126.75149)"
     d="M810.96232,314.99231a23.04115,23.04115,0,1,1-31.0491,34.0519c-9.40317-8.574-15.12216-44.97012-15.12216-44.97012S801.5591,306.41835,810.96232,314.99231Z" />
  <path
     id="path28"
     fill="#3f3d56"
     transform="translate(-106.03485 -126.75149)"
     d="M881.57959,315.83852a13.17215,13.17215,0,0,0-12.81856-10.3762,13.46253,13.46253,0,0,0-2.811.30721c-6.86621,1.49-19.0704,16.44369-19.585,17.07349l-.60673.745.8602.4301c.67588.33794,15.37614,7.61895,23.07185,7.61895a8.48659,8.48659,0,0,0,1.82788-.17666,13.1463,13.1463,0,0,0,10.06129-15.62189Zm-3.08753,9.06284a11.48772,11.48772,0,0,1-7.30405,5.06137c-5.5145,1.19813-19.38527-5.16891-23.01044-6.897,2.5806-3.07216,12.58047-14.60042,18.10267-15.79855a11.60753,11.60753,0,0,1,12.21182,17.63414Z" />
  <circle
     id="circle44"
     fill="#fff"
     r="3.67906"
     cy="454.39595"
     cx="280.76043" />
</svg>
